<svg width="126" height="38" viewBox="0 0 126 38" fill="none" xmlns="http://www.w3.org/2000/svg">
<g clip-path="url(#clip0_6875_11422)">
<path d="M79.9163 34.8861V33.2879C79.8883 32.5201 80.076 31.7601 80.4572 31.0972C80.8147 30.5373 81.3727 30.1418 82.0122 29.9949V28.0798H83.9865V29.9811C84.3138 30.0445 84.6246 30.1764 84.8992 30.3686C85.1739 30.5607 85.4064 30.8088 85.5821 31.0972C85.9587 31.7715 86.1415 32.5402 86.1095 33.3154V37.9587H84.1352V33.2466C84.1716 32.7691 84.0731 32.291 83.8513 31.8688C83.7559 31.7303 83.6279 31.6186 83.479 31.544C83.3301 31.4693 83.1652 31.4341 82.9994 31.4416C82.8373 31.4336 82.676 31.4688 82.5313 31.5437C82.3867 31.6186 82.2637 31.7306 82.1745 31.8688C81.9595 32.2931 81.8657 32.7705 81.9041 33.2466V34.8724L79.9163 34.8861Z" fill="#2FC56D"/>
<path d="M93.3033 33.9492H96.0077L96.4134 36.4293H96.0889C95.7406 36.4368 95.3976 36.3411 95.1017 36.1537C94.8401 35.9733 94.6487 35.7052 94.5609 35.3959H93.3033V37.9449H91.3155V35.4097H90.6529C89.8886 35.4529 89.1333 35.224 88.5164 34.7621C88.2731 34.5408 88.0831 34.2654 87.9612 33.9571C87.8392 33.6489 87.7886 33.3162 87.8133 32.9848C87.7936 32.4153 87.9761 31.8577 88.3271 31.4141C88.739 30.965 89.2863 30.6692 89.8822 30.5736C90.3136 30.498 90.724 30.3288 91.0856 30.0776C91.4353 29.8476 91.7308 29.5418 91.9511 29.182C92.1642 28.8457 92.2984 28.4638 92.3432 28.066H94.3039C94.2865 28.4717 94.19 28.8698 94.02 29.2371C93.8409 29.5727 93.6025 29.8716 93.3168 30.1189C92.9528 30.4282 92.5476 30.6833 92.1133 30.8767C92.5093 31.0333 92.8392 31.3256 93.0464 31.7034C93.2671 32.1273 93.3788 32.6014 93.3709 33.0812L93.3033 33.9492ZM89.6929 32.9572C89.6783 33.0974 89.6965 33.2391 89.7458 33.3707C89.7952 33.5024 89.8743 33.6204 89.9768 33.715C90.2271 33.8879 90.527 33.9704 90.8287 33.9492H91.3155V33.095C91.3155 32.351 91.0586 31.979 90.5177 31.979C90.4047 31.9731 90.2919 31.9923 90.1868 32.0351C90.0818 32.0779 89.9871 32.1434 89.9092 32.227C89.7458 32.432 89.6681 32.6943 89.6929 32.9572Z" fill="#2FC56D"/>
<path d="M100.713 38C99.8589 38.0639 99.0114 37.8038 98.3336 37.2698C98.0507 37.0061 97.8297 36.6809 97.6869 36.3184C97.5441 35.9559 97.4832 35.5653 97.5087 35.1755C97.5023 34.7608 97.5758 34.3489 97.7251 33.963C97.8848 33.5537 98.1136 33.176 98.4012 32.847C98.8936 32.2881 99.4222 31.7634 99.9833 31.2763C100.389 30.9249 100.709 30.4813 100.916 29.9812C101.14 29.3598 101.241 28.6997 101.214 28.0385H103.229C103.231 28.9312 103.046 29.8141 102.688 30.6287C102.34 31.3886 101.821 32.0542 101.173 32.5714C100.653 32.9534 100.196 33.4187 99.821 33.9492C99.5489 34.3189 99.4018 34.7685 99.4018 35.2306C99.3941 35.3998 99.42 35.5688 99.4781 35.7274C99.5362 35.8861 99.6253 36.0311 99.7399 36.1538C99.8534 36.2769 99.9923 36.373 100.147 36.4349C100.301 36.4968 100.467 36.5232 100.632 36.512C100.82 36.5267 101.009 36.4956 101.183 36.4214C101.357 36.3471 101.511 36.2318 101.633 36.0849C101.886 35.7251 102.006 35.2859 101.971 34.8448V34.0181H104.04V34.7484C104.095 35.2046 104.046 35.6677 103.896 36.1013C103.746 36.5349 103.5 36.9273 103.177 37.2476C102.853 37.568 102.461 37.8076 102.031 37.9477C101.602 38.0878 101.146 38.1246 100.7 38.0551" fill="#2FC56D"/>
<path d="M106.352 33.5635C106.336 32.9996 106.428 32.438 106.623 31.9101C106.165 31.6272 105.796 31.2184 105.557 30.7309C105.317 30.2434 105.218 29.6969 105.27 29.1545V28.1073H107.231V29.2096C107.174 29.7216 107.293 30.238 107.569 30.6701C108.131 30.3099 108.786 30.1322 109.449 30.1603C109.871 30.1312 110.294 30.1963 110.688 30.351C111.083 30.5057 111.44 30.7462 111.734 31.0558C112.295 31.7779 112.574 32.6857 112.518 33.6048V34.9137H110.531V33.5359C110.567 33.0584 110.468 32.5803 110.247 32.1581C110.154 32.0168 110.027 31.9028 109.877 31.8278C109.727 31.7528 109.561 31.7194 109.395 31.731C109.231 31.723 109.068 31.7596 108.923 31.8371C108.778 31.9146 108.656 32.0302 108.57 32.1719C108.36 32.5981 108.267 33.074 108.299 33.5497V37.9725H106.352V33.5635Z" fill="#2FC56D"/>
<path d="M116.981 34.1146C116.756 34.1322 116.53 34.1322 116.305 34.1146C115.925 34.1406 115.544 34.0894 115.185 33.9641C114.825 33.8387 114.493 33.6416 114.209 33.3843C113.957 33.1054 113.765 32.7767 113.644 32.4187C113.523 32.0608 113.476 31.6813 113.505 31.3039C113.497 30.7034 113.652 30.1122 113.952 29.5954C114.272 29.0676 114.744 28.6537 115.304 28.4105C115.91 28.1118 116.578 27.9653 117.251 27.9833H123.174C123.934 27.9399 124.685 28.169 125.297 28.6309C125.548 28.8488 125.746 29.1222 125.877 29.4303C126.009 29.7383 126.069 30.0728 126.054 30.4083C126.073 30.7616 126.023 31.1152 125.907 31.4487C125.791 31.7822 125.611 32.0889 125.378 32.351C125.131 32.5975 124.836 32.7887 124.513 32.9121C124.189 33.0355 123.843 33.0884 123.498 33.0674H120.605V29.5403H119.455V33.1226L117.495 37.8898H115.399L116.981 34.1146ZM116.399 32.6266C116.757 32.6328 117.11 32.5475 117.427 32.3785V29.5403H117.251C116.91 29.5301 116.573 29.6159 116.278 29.7883C116.015 29.9475 115.8 30.176 115.655 30.4496C115.518 30.7322 115.449 31.0438 115.453 31.359C115.427 31.6881 115.518 32.0157 115.71 32.2821C115.791 32.388 115.896 32.473 116.016 32.5304C116.136 32.5878 116.267 32.616 116.399 32.6128V32.6266ZM122.525 29.5403V31.5794H122.971C123.112 31.6002 123.257 31.5871 123.392 31.5411C123.528 31.4951 123.651 31.4176 123.752 31.3146C123.853 31.2116 123.929 31.086 123.975 30.9478C124.02 30.8097 124.033 30.6626 124.012 30.5185C124.023 30.3827 124.004 30.2461 123.954 30.1194C123.905 29.9927 123.828 29.8793 123.728 29.7883C123.516 29.6106 123.245 29.5219 122.971 29.5403H122.525Z" fill="#2FC56D"/>
<path d="M43.5145 1.41916C41.5808 -1.98403 30.3438 0.950706 18.4037 7.97754C6.4636 15.0044 -1.64973 23.4641 0.283951 26.8673C1.94718 29.802 10.4797 28.0384 20.432 23.0232C20.8783 22.7752 20.8377 22.2379 20.2698 22.4308C14.1307 24.7317 9.0193 24.8695 7.69412 22.4308C5.93624 19.1929 11.5074 12.6208 20.1346 7.77086C28.7617 2.92097 37.1861 1.59828 38.9575 4.83613C39.7553 6.32417 39.0251 8.50111 37.159 10.8985C36.4694 11.7665 36.9697 12.0283 37.47 11.6012C42.2299 7.30242 44.7044 3.43076 43.5415 1.37783" fill="#EF373E"/>
<path d="M25.6111 23.8361C24.6819 23.606 23.802 23.2044 23.0148 22.6512L24.2589 19.8956C24.9645 20.3543 25.729 20.7113 26.5306 20.9565C27.3102 21.2021 28.1215 21.3275 28.9376 21.3285C29.5829 21.3597 30.2265 21.2371 30.8171 20.9703C31.0072 20.8935 31.1705 20.7608 31.2861 20.589C31.4018 20.4172 31.4645 20.2141 31.4662 20.0058C31.4629 19.8103 31.4052 19.6199 31.2999 19.4565C31.1946 19.2931 31.0459 19.1634 30.8712 19.0827C30.167 18.7312 29.4149 18.4896 28.6401 18.3662C27.5319 18.1667 26.4544 17.8193 25.4353 17.3329C24.7705 17.0165 24.2112 16.5088 23.8262 15.8724C23.5019 15.2547 23.3433 14.5608 23.3664 13.8608C23.3565 12.982 23.6218 12.123 24.1237 11.4083C24.6631 10.6468 25.3975 10.0511 26.2466 9.686C27.241 9.26874 28.3085 9.06247 29.3838 9.07977C30.4178 9.07939 31.4466 9.22782 32.4398 9.52067C33.2861 9.7503 34.0776 10.1535 34.7656 10.7056L33.5757 13.4612C32.9522 13.0151 32.2691 12.6625 31.5473 12.4141C30.865 12.1704 30.1474 12.0447 29.4244 12.0421C28.838 12.0121 28.2557 12.1557 27.7476 12.4554C27.5535 12.5595 27.3914 12.7163 27.2793 12.9084C27.1671 13.1005 27.1092 13.3204 27.1121 13.5439C27.1008 13.7757 27.1784 14.003 27.3284 14.1777C27.5716 14.3966 27.8572 14.5609 28.1668 14.6599C28.7711 14.8763 29.3903 15.0467 30.0193 15.1697C31.1014 15.3835 32.1514 15.7402 33.143 16.2306C33.792 16.5268 34.3453 17.0046 34.7386 17.6084C35.0704 18.2086 35.2342 18.8902 35.2119 19.5787C35.2352 20.2427 35.0968 20.9024 34.8089 21.4986C34.521 22.0949 34.0927 22.6092 33.5622 22.9957C32.1708 23.9033 30.5325 24.3375 28.8835 24.2357C27.7802 24.2495 26.6799 24.1152 25.6111 23.8361Z" fill="#2FC56D"/>
<path d="M44.2582 20.7498C44.6464 20.167 44.8321 19.4686 44.7856 18.7658C44.8299 18.0546 44.6447 17.3481 44.2582 16.7542C44.0808 16.5205 43.8502 16.3344 43.5863 16.212C43.3224 16.0896 43.0332 16.0345 42.7437 16.0515C42.4524 16.0412 42.1629 16.1021 41.8994 16.2291C41.6359 16.3562 41.4061 16.5457 41.2293 16.7817C40.8275 17.3748 40.6323 18.0878 40.6748 18.8071C40.6265 19.5035 40.8178 20.1953 41.2157 20.7636C41.4095 20.9778 41.6447 21.1487 41.9065 21.2657C42.1683 21.3826 42.4511 21.4429 42.737 21.4429C43.0229 21.4429 43.3056 21.3826 43.5674 21.2657C43.8293 21.1487 44.0645 20.9778 44.2582 20.7636V20.7498ZM48.4366 13.5026V24.029H44.7856V22.6512C44.461 23.1715 43.9897 23.5798 43.4334 23.8223C42.8444 24.1168 42.1963 24.2678 41.5403 24.2632C40.7045 24.2721 39.8836 24.0379 39.1739 23.5881C38.4585 23.1301 37.8898 22.4693 37.5377 21.6868C37.1386 20.7821 36.9401 19.7989 36.9562 18.8071C36.9428 17.8009 37.1459 16.8038 37.5512 15.8862C37.9127 15.0877 38.4778 14.4026 39.1874 13.9021C39.8858 13.435 40.7049 13.1903 41.5403 13.1994C42.194 13.1912 42.8395 13.3474 43.4199 13.6541C43.9741 13.9132 44.4436 14.3293 44.7721 14.8528V13.475L48.4366 13.5026Z" fill="#2FC56D"/>
<path d="M50.4919 13.4887V13.1994C50.428 11.9782 50.8192 10.7774 51.5872 9.83755C52.0053 9.41773 52.5057 9.09269 53.0557 8.88373C53.6056 8.67478 54.1927 8.58664 54.7785 8.62508C55.4325 8.58777 56.0876 8.6718 56.7122 8.87308V11.7665C56.394 11.6823 56.0672 11.6361 55.7386 11.6287C55.3385 11.6101 54.9466 11.7481 54.6433 12.0145C54.4937 12.1667 54.3786 12.3504 54.3062 12.5527C54.2338 12.755 54.2057 12.9711 54.2241 13.1856V13.4336H56.2389V16.1893H54.2105V24.029H50.4919V16.2719V13.5163" fill="#2FC56D"/>
<path d="M64.5956 20.7498C64.9945 20.1716 65.1855 19.4708 65.1365 18.7658C65.1831 18.0524 64.9925 17.3438 64.5956 16.7542C64.4182 16.5205 64.1875 16.3344 63.9236 16.212C63.6598 16.0896 63.3706 16.0345 63.0811 16.0515C62.7899 16.0423 62.5008 16.1037 62.2375 16.2307C61.9742 16.3576 61.7443 16.5465 61.5666 16.7817C61.1696 17.3765 60.9793 18.0894 61.0257 18.8071C60.9801 19.5012 61.1659 20.1906 61.5531 20.7636C61.7468 20.9778 61.9821 21.1487 62.2439 21.2657C62.5057 21.3826 62.7885 21.4429 63.0744 21.4429C63.3602 21.4429 63.643 21.3826 63.9048 21.2657C64.1666 21.1487 64.4019 20.9778 64.5956 20.7636V20.7498ZM68.774 13.5026V24.029H65.1365V22.6512C64.8106 23.1704 64.3397 23.5783 63.7843 23.8223C63.2001 24.1167 62.5564 24.2676 61.9047 24.2632C61.0542 24.291 60.2147 24.0609 59.4926 23.6023C58.7705 23.1436 58.1981 22.477 57.848 21.6867C57.4428 20.7841 57.244 19.7995 57.2666 18.8071C57.2489 17.8019 57.4473 16.8049 57.848 15.8862C58.215 15.0871 58.7844 14.4022 59.4977 13.9021C60.1943 13.4311 61.0146 13.1861 61.8506 13.1994C62.4998 13.1929 63.1406 13.3491 63.7167 13.6541C64.2701 13.9145 64.7392 14.3303 65.0689 14.8528V13.475L68.774 13.5026Z" fill="#2FC56D"/>
<path d="M78.6993 13.475V16.9195C78.1706 16.6469 77.5879 16.5008 76.9955 16.4924C75.4404 16.4924 74.6696 17.2502 74.6696 18.7658V24.029H70.9916V16.5337C70.9979 15.5163 70.9437 14.4995 70.8293 13.4888H74.291L74.5209 15.2661C74.7243 14.6542 75.1184 14.1268 75.6432 13.7643C76.1945 13.4141 76.8327 13.2324 77.4823 13.2408C77.8828 13.2211 78.2821 13.3015 78.6452 13.475" fill="#2FC56D"/>
<path d="M83.6619 13.4888H79.9568V24.0841H83.6619V13.4888Z" fill="#2FC56D"/>
<path d="M86.8938 22.789C86.3878 22.2671 85.9942 21.6434 85.7381 20.9578C85.482 20.2722 85.369 19.5397 85.4063 18.8071C85.3876 17.7817 85.6348 16.7693 86.123 15.8724C86.6023 15.0283 87.3116 14.3439 88.1648 13.9021C89.1027 13.4184 90.1429 13.177 91.1938 13.1994C91.9593 13.1981 92.7205 13.3142 93.452 13.5439C94.0926 13.729 94.6903 14.0429 95.2099 14.467L94.2634 17.14C93.8575 16.822 93.3997 16.5795 92.9111 16.4235C92.4798 16.2513 92.0221 16.158 91.5589 16.1479C91.2368 16.1271 90.914 16.1751 90.6113 16.289C90.3085 16.4029 90.0325 16.5802 89.801 16.8093C89.4045 17.3972 89.1922 18.0938 89.1922 18.8071C89.1922 19.5205 89.4045 20.2171 89.801 20.8049C90.0334 21.0416 90.3132 21.2244 90.6212 21.3409C90.9292 21.4574 91.2583 21.5049 91.586 21.4801C92.0479 21.4703 92.505 21.3819 92.9382 21.2183C93.3981 21.0471 93.8275 20.8005 94.2093 20.488L95.1558 23.0508C94.6302 23.4924 94.0165 23.8121 93.3574 23.9877C92.5834 24.2121 91.7821 24.3234 90.9775 24.3184C90.2274 24.3638 89.4759 24.2582 88.766 24.0076C88.056 23.757 87.4014 23.3663 86.8397 22.8579" fill="#2FC56D"/>
<path d="M103.661 18.7244C103.716 18.0118 103.54 17.3006 103.161 16.6991C102.981 16.4749 102.75 16.298 102.489 16.1829C102.228 16.0679 101.944 16.0181 101.66 16.0377C101.37 16.0159 101.079 16.0645 100.811 16.1795C100.543 16.2944 100.306 16.4725 100.118 16.6991C99.7714 17.3305 99.5892 18.0421 99.5892 18.7658C99.5892 19.4895 99.7714 20.2011 100.118 20.8325C100.306 21.059 100.543 21.2371 100.811 21.3521C101.079 21.467 101.37 21.5156 101.66 21.4938C103.012 21.4938 103.661 20.5845 103.661 18.7382V18.7244ZM98.631 23.5881C97.7935 23.1693 97.1004 22.5015 96.6433 21.673C96.1516 20.7724 95.9042 19.7547 95.9266 18.7244C95.8977 17.6891 96.1455 16.6652 96.6433 15.7622C97.1007 14.9405 97.7945 14.2817 98.631 13.8746C99.572 13.4024 100.612 13.1707 101.66 13.1994C102.695 13.1736 103.721 13.4053 104.648 13.8746C105.477 14.2883 106.165 14.9458 106.623 15.7622C107.112 16.6529 107.355 17.6625 107.326 18.6831C107.354 19.7079 107.111 20.7215 106.623 21.6178C106.167 22.4428 105.479 23.1098 104.648 23.533C103.721 24.0022 102.695 24.234 101.66 24.2081C100.616 24.2475 99.5786 24.0351 98.631 23.5881Z" fill="#2FC56D"/>
<path d="M125.121 14.3844C125.777 15.3981 126.086 16.6041 126 17.8151V24.029H122.295V17.8702C122.336 17.3924 122.237 16.9129 122.011 16.4924C121.908 16.3459 121.768 16.2303 121.607 16.1576C121.445 16.0849 121.267 16.0577 121.091 16.0791C120.858 16.0669 120.624 16.1133 120.412 16.2142C120.2 16.3151 120.015 16.4673 119.874 16.6577C119.564 17.1442 119.413 17.718 119.442 18.2973V24.029H115.737V17.8702C115.778 17.3924 115.679 16.9129 115.453 16.4924C115.348 16.348 115.208 16.234 115.047 16.1615C114.885 16.089 114.708 16.0606 114.533 16.0791C114.303 16.064 114.073 16.1093 113.864 16.2106C113.656 16.3119 113.477 16.4658 113.343 16.6577C113.038 17.1459 112.891 17.7195 112.924 18.2973V24.029H109.205V16.5337C109.218 15.5162 109.164 14.4989 109.043 13.4888H112.532L112.708 14.9768C113.011 14.3885 113.483 13.9081 114.06 13.599C114.663 13.2877 115.331 13.1316 116.007 13.1443C116.647 13.0897 117.287 13.2464 117.833 13.5913C118.378 13.9363 118.8 14.4511 119.036 15.0595C119.411 14.4861 119.917 14.0135 120.51 13.6817C121.112 13.3351 121.793 13.1547 122.484 13.1581C122.991 13.1086 123.502 13.1856 123.973 13.3825C124.445 13.5793 124.862 13.8901 125.189 14.2879" fill="#2FC56D"/>
<path d="M83.6619 8.58377H79.9568V11.987H83.6619V8.58377Z" fill="#2FC56D"/>
</g>
<defs>
<clipPath id="clip0_6875_11422">
<rect width="126" height="38" fill="white"/>
</clipPath>
</defs>
</svg>
